<?xml version="1.0" encoding="UTF-8" standalone="no"?>
<!DOCTYPE svg PUBLIC "-//W3C//DTD SVG 1.1//EN"
 "http://www.w3.org/Graphics/SVG/1.1/DTD/svg11.dtd">
<!-- Generated by graphviz version 2.43.0 (0)
 -->
<!-- Title: G Pages: 1 -->
<svg width="379pt" height="395pt"
 viewBox="0.00 0.00 379.00 395.00" xmlns="http://www.w3.org/2000/svg" xmlns:xlink="http://www.w3.org/1999/xlink">
<g id="graph0" class="graph" transform="scale(1 1) rotate(0) translate(4 391)">
<title>G</title>
<polygon fill="#eeeeee" stroke="transparent" points="-4,4 -4,-391 375,-391 375,4 -4,4"/>
<g id="clust1" class="cluster">
<title>cluster_inputs</title>
<polygon fill="#eeeeee" stroke="black" stroke-dasharray="5,2" points="28,-303 28,-379 360,-379 360,-303 28,-303"/>
<text text-anchor="middle" x="293.5" y="-310.8" font-family="Times,serif" font-size="14.00">Workflow Inputs</text>
</g>
<g id="clust2" class="cluster">
<title>cluster_outputs</title>
<polygon fill="#eeeeee" stroke="black" stroke-dasharray="5,2" points="122,-8 122,-84 267,-84 267,-8 122,-8"/>
<text text-anchor="middle" x="194.5" y="-15.8" font-family="Times,serif" font-size="14.00">Workflow Outputs</text>
</g>
<!-- download_election_data -->
<g id="node1" class="node">
<title>download_election_data</title>
<polygon fill="lightgoldenrodyellow" stroke="black" points="21,-258.5 21,-294.5 207,-294.5 207,-258.5 21,-258.5"/>
<text text-anchor="middle" x="114" y="-272.8" font-family="Times,serif" font-size="14.00">download_election_data</text>
</g>
<!-- get_feature_info -->
<g id="node2" class="node">
<title>get_feature_info</title>
<polygon fill="lightgoldenrodyellow" stroke="black" points="0,-185.5 0,-221.5 132,-221.5 132,-185.5 0,-185.5"/>
<text text-anchor="middle" x="66" y="-199.8" font-family="Times,serif" font-size="14.00">get_feature_info</text>
</g>
<!-- download_election_data&#45;&gt;get_feature_info -->
<g id="edge1" class="edge">
<title>download_election_data&#45;&gt;get_feature_info</title>
<path fill="none" stroke="black" d="M102.38,-258.31C96.6,-249.77 89.51,-239.27 83.12,-229.82"/>
<polygon fill="black" stroke="black" points="86.01,-227.85 77.51,-221.53 80.21,-231.77 86.01,-227.85"/>
</g>
<!-- plot_election -->
<g id="node3" class="node">
<title>plot_election</title>
<polygon fill="lightgoldenrodyellow" stroke="black" points="99.5,-112.5 99.5,-148.5 206.5,-148.5 206.5,-112.5 99.5,-112.5"/>
<text text-anchor="middle" x="153" y="-126.8" font-family="Times,serif" font-size="14.00">plot_election</text>
</g>
<!-- download_election_data&#45;&gt;plot_election -->
<g id="edge3" class="edge">
<title>download_election_data&#45;&gt;plot_election</title>
<path fill="none" stroke="black" d="M124.55,-258.29C130.32,-248.1 137.07,-234.72 141,-222 147.38,-201.34 150.37,-176.99 151.77,-158.76"/>
<polygon fill="black" stroke="black" points="155.28,-158.75 152.44,-148.54 148.29,-158.29 155.28,-158.75"/>
</g>
<!-- plot_map -->
<g id="node5" class="node">
<title>plot_map</title>
<polygon fill="lightgoldenrodyellow" stroke="black" points="194,-185.5 194,-221.5 276,-221.5 276,-185.5 194,-185.5"/>
<text text-anchor="middle" x="235" y="-199.8" font-family="Times,serif" font-size="14.00">plot_map</text>
</g>
<!-- download_election_data&#45;&gt;plot_map -->
<g id="edge5" class="edge">
<title>download_election_data&#45;&gt;plot_map</title>
<path fill="none" stroke="black" d="M142.98,-258.49C159.18,-248.99 179.55,-237.04 197.01,-226.79"/>
<polygon fill="black" stroke="black" points="198.98,-229.69 205.83,-221.61 195.44,-223.66 198.98,-229.69"/>
</g>
<!-- get_feature_info&#45;&gt;plot_election -->
<g id="edge2" class="edge">
<title>get_feature_info&#45;&gt;plot_election</title>
<path fill="none" stroke="black" d="M87.06,-185.31C98.17,-176.24 111.98,-164.98 124.08,-155.1"/>
<polygon fill="black" stroke="black" points="126.6,-157.56 132.13,-148.53 122.17,-152.14 126.6,-157.56"/>
</g>
<!-- bar -->
<g id="node10" class="node">
<title>bar</title>
<polygon fill="#94ddf4" stroke="black" points="130,-39.5 130,-75.5 184,-75.5 184,-39.5 130,-39.5"/>
<text text-anchor="middle" x="157" y="-53.8" font-family="Times,serif" font-size="14.00">bar</text>
</g>
<!-- plot_election&#45;&gt;bar -->
<g id="edge10" class="edge">
<title>plot_election&#45;&gt;bar</title>
<path fill="none" stroke="black" d="M153.97,-112.31C154.42,-104.29 154.97,-94.55 155.47,-85.57"/>
<polygon fill="black" stroke="black" points="158.97,-85.71 156.04,-75.53 151.98,-85.32 158.97,-85.71"/>
</g>
<!-- shp2geojson -->
<g id="node4" class="node">
<title>shp2geojson</title>
<polygon fill="lightgoldenrodyellow" stroke="black" points="265,-258.5 265,-294.5 371,-294.5 371,-258.5 265,-258.5"/>
<text text-anchor="middle" x="318" y="-272.8" font-family="Times,serif" font-size="14.00">shp2geojson</text>
</g>
<!-- shp2geojson&#45;&gt;plot_map -->
<g id="edge4" class="edge">
<title>shp2geojson&#45;&gt;plot_map</title>
<path fill="none" stroke="black" d="M297.91,-258.31C287.31,-249.24 274.13,-237.98 262.59,-228.1"/>
<polygon fill="black" stroke="black" points="264.78,-225.37 254.91,-221.53 260.23,-230.69 264.78,-225.37"/>
</g>
<!-- map -->
<g id="node11" class="node">
<title>map</title>
<polygon fill="#94ddf4" stroke="black" points="205,-39.5 205,-75.5 259,-75.5 259,-39.5 205,-39.5"/>
<text text-anchor="middle" x="232" y="-53.8" font-family="Times,serif" font-size="14.00">map</text>
</g>
<!-- plot_map&#45;&gt;map -->
<g id="edge11" class="edge">
<title>plot_map&#45;&gt;map</title>
<path fill="none" stroke="black" d="M234.64,-185.42C234.13,-160.84 233.18,-115.25 232.57,-85.93"/>
<polygon fill="black" stroke="black" points="236.06,-85.49 232.36,-75.56 229.06,-85.63 236.06,-85.49"/>
</g>
<!-- ags -->
<g id="node6" class="node">
<title>ags</title>
<polygon fill="#94ddf4" stroke="black" points="128,-334.5 128,-370.5 182,-370.5 182,-334.5 128,-334.5"/>
<text text-anchor="middle" x="155" y="-348.8" font-family="Times,serif" font-size="14.00">ags</text>
</g>
<!-- ags&#45;&gt;download_election_data -->
<g id="edge6" class="edge">
<title>ags&#45;&gt;download_election_data</title>
<path fill="none" stroke="black" d="M145.49,-334.34C140.42,-325.18 134.07,-313.73 128.41,-303.51"/>
<polygon fill="black" stroke="black" points="131.37,-301.62 123.46,-294.57 125.24,-305.01 131.37,-301.62"/>
</g>
<!-- feature -->
<g id="node7" class="node">
<title>feature</title>
<polygon fill="#94ddf4" stroke="black" points="200,-334.5 200,-370.5 268,-370.5 268,-334.5 200,-334.5"/>
<text text-anchor="middle" x="234" y="-348.8" font-family="Times,serif" font-size="14.00">feature</text>
</g>
<!-- feature&#45;&gt;plot_map -->
<g id="edge7" class="edge">
<title>feature&#45;&gt;plot_map</title>
<path fill="none" stroke="black" d="M234.12,-334.35C234.29,-309.12 234.61,-261.76 234.81,-231.74"/>
<polygon fill="black" stroke="black" points="238.32,-231.56 234.88,-221.54 231.32,-231.52 238.32,-231.56"/>
</g>
<!-- shapes -->
<g id="node8" class="node">
<title>shapes</title>
<polygon fill="#94ddf4" stroke="black" points="286,-334.5 286,-370.5 352,-370.5 352,-334.5 286,-334.5"/>
<text text-anchor="middle" x="319" y="-348.8" font-family="Times,serif" font-size="14.00">shapes</text>
</g>
<!-- shapes&#45;&gt;shp2geojson -->
<g id="edge8" class="edge">
<title>shapes&#45;&gt;shp2geojson</title>
<path fill="none" stroke="black" d="M318.77,-334.34C318.65,-325.56 318.5,-314.66 318.37,-304.77"/>
<polygon fill="black" stroke="black" points="321.87,-304.52 318.23,-294.57 314.87,-304.62 321.87,-304.52"/>
</g>
<!-- election -->
<g id="node9" class="node">
<title>election</title>
<polygon fill="#94ddf4" stroke="black" points="36.5,-334.5 36.5,-370.5 109.5,-370.5 109.5,-334.5 36.5,-334.5"/>
<text text-anchor="middle" x="73" y="-348.8" font-family="Times,serif" font-size="14.00">election</text>
</g>
<!-- election&#45;&gt;download_election_data -->
<g id="edge9" class="edge">
<title>election&#45;&gt;download_election_data</title>
<path fill="none" stroke="black" d="M82.51,-334.34C87.58,-325.18 93.93,-313.73 99.59,-303.51"/>
<polygon fill="black" stroke="black" points="102.76,-305.01 104.54,-294.57 96.63,-301.62 102.76,-305.01"/>
</g>
</g>
</svg>
