<?xml version="1.0" encoding="UTF-8" standalone="no"?>
<!DOCTYPE svg PUBLIC "-//W3C//DTD SVG 1.1//EN"
 "http://www.w3.org/Graphics/SVG/1.1/DTD/svg11.dtd">
<!-- Generated by graphviz version 2.43.0 (0)
 -->
<!-- Title: workflow Pages: 1 -->
<svg width="590pt" height="455pt"
 viewBox="0.00 0.00 590.00 455.00" xmlns="http://www.w3.org/2000/svg" xmlns:xlink="http://www.w3.org/1999/xlink">
<g id="graph0" class="graph" transform="scale(1 1) rotate(0) translate(4 451)">
<title>workflow</title>
<g id="clust1" class="cluster">
<title>cluster_inputs</title>
<polygon fill="#eeeeee" stroke="#818281" stroke-width="2" points="11,-363 11,-439 339,-439 339,-363 11,-363"/>
<text text-anchor="middle" x="175" y="-423.8" font-family="Fira Sans" font-size="14.00">Workflow Inputs</text>
</g>
<g id="clust2" class="cluster">
<title>cluster_outputs</title>
<polygon fill="#eeeeee" stroke="#818281" stroke-width="2" points="158,-8 158,-84 300,-84 300,-8 158,-8"/>
<text text-anchor="middle" x="229" y="-15.8" font-family="Fira Sans" font-size="14.00">Workflow Outputs</text>
</g>
<!-- ags -->
<g id="node1" class="node">
<title>ags</title>
<polygon fill="#6fc1b5" stroke="#0f9884" stroke-width="2" points="19,-371.5 19,-407.5 73,-407.5 73,-371.5 19,-371.5"/>
<text text-anchor="middle" x="46" y="-385.8" font-family="Fira Sans" font-size="14.00">ags</text>
</g>
<!-- download_election_data -->
<g id="node7" class="node">
<title>download_election_data</title>
<polygon fill="#c5e0b4" stroke="#385723" stroke-width="2" points="10,-288.5 10,-324.5 192,-324.5 192,-288.5 10,-288.5"/>
<text text-anchor="middle" x="101" y="-302.8" font-family="Fira Sans" font-size="14.00">download_election_data</text>
</g>
<!-- ags&#45;&gt;download_election_data -->
<g id="edge1" class="edge">
<title>ags&#45;&gt;download_election_data</title>
<path fill="none" stroke="#385723" stroke-width="2" d="M57.66,-371.32C65.17,-360.26 75.08,-345.68 83.52,-333.25"/>
<polygon fill="#385723" stroke="#385723" stroke-width="2" points="86.63,-334.89 89.35,-324.65 80.84,-330.96 86.63,-334.89"/>
<text text-anchor="middle" x="84" y="-345.8" font-family="Fira Sans" font-size="9.00" fill="#818281">ags</text>
</g>
<!-- election -->
<g id="node2" class="node">
<title>election</title>
<polygon fill="#6fc1b5" stroke="#0f9884" stroke-width="2" points="91.5,-371.5 91.5,-407.5 162.5,-407.5 162.5,-371.5 91.5,-371.5"/>
<text text-anchor="middle" x="127" y="-385.8" font-family="Fira Sans" font-size="14.00">election</text>
</g>
<!-- election&#45;&gt;download_election_data -->
<g id="edge2" class="edge">
<title>election&#45;&gt;download_election_data</title>
<path fill="none" stroke="#385723" stroke-width="2" d="M121.49,-371.32C118.04,-360.58 113.53,-346.53 109.61,-334.34"/>
<polygon fill="#385723" stroke="#385723" stroke-width="2" points="112.89,-333.11 106.51,-324.65 106.23,-335.24 112.89,-333.11"/>
<text text-anchor="middle" x="133" y="-345.8" font-family="Fira Sans" font-size="9.00" fill="#818281">election</text>
</g>
<!-- feature -->
<g id="node3" class="node">
<title>feature</title>
<polygon fill="#6fc1b5" stroke="#0f9884" stroke-width="2" points="181,-371.5 181,-407.5 247,-407.5 247,-371.5 181,-371.5"/>
<text text-anchor="middle" x="214" y="-385.8" font-family="Fira Sans" font-size="14.00">feature</text>
</g>
<!-- plot_map -->
<g id="node13" class="node">
<title>plot_map</title>
<polygon fill="#c5e0b4" stroke="#385723" stroke-width="2" points="257,-205.5 257,-241.5 337,-241.5 337,-205.5 257,-205.5"/>
<text text-anchor="middle" x="297" y="-219.8" font-family="Fira Sans" font-size="14.00">plot_map</text>
</g>
<!-- feature&#45;&gt;plot_map -->
<g id="edge11" class="edge">
<title>feature&#45;&gt;plot_map</title>
<path fill="none" stroke="#385723" stroke-width="2" d="M215.43,-371.2C217.75,-350.38 223.61,-314.88 238,-288 245.79,-273.45 257.74,-259.71 268.85,-248.76"/>
<polygon fill="#385723" stroke="#385723" stroke-width="2" points="271.5,-251.07 276.34,-241.64 266.68,-245.99 271.5,-251.07"/>
<text text-anchor="middle" x="254.5" y="-304.3" font-family="Fira Sans" font-size="9.00" fill="#818281">feature</text>
</g>
<!-- shapes -->
<g id="node4" class="node">
<title>shapes</title>
<polygon fill="#6fc1b5" stroke="#0f9884" stroke-width="2" points="265,-371.5 265,-407.5 331,-407.5 331,-371.5 265,-371.5"/>
<text text-anchor="middle" x="298" y="-385.8" font-family="Fira Sans" font-size="14.00">shapes</text>
</g>
<!-- shp2geojson -->
<g id="node10" class="node">
<title>shp2geojson</title>
<polygon fill="#c5e0b4" stroke="#385723" stroke-width="2" points="279.5,-288.5 279.5,-324.5 384.5,-324.5 384.5,-288.5 279.5,-288.5"/>
<text text-anchor="middle" x="332" y="-302.8" font-family="Fira Sans" font-size="14.00">shp2geojson</text>
</g>
<!-- shapes&#45;&gt;shp2geojson -->
<g id="edge6" class="edge">
<title>shapes&#45;&gt;shp2geojson</title>
<path fill="none" stroke="#385723" stroke-width="2" d="M292.1,-371.44C290.03,-362.62 289.08,-351.87 293,-343 294.75,-339.04 297.18,-335.34 299.98,-331.93"/>
<polygon fill="#385723" stroke="#385723" stroke-width="2" points="302.68,-334.17 307.05,-324.52 297.62,-329.34 302.68,-334.17"/>
<text text-anchor="middle" x="337.5" y="-345.8" font-family="Fira Sans" font-size="9.00" fill="#818281">data_braunschweig</text>
</g>
<!-- bar -->
<g id="node5" class="node">
<title>bar</title>
<polygon fill="#f8cbad" stroke="#823909" stroke-width="2" points="166,-39.5 166,-75.5 220,-75.5 220,-39.5 166,-39.5"/>
<text text-anchor="middle" x="193" y="-53.8" font-family="Fira Sans" font-size="14.00">bar</text>
</g>
<!-- map -->
<g id="node6" class="node">
<title>map</title>
<polygon fill="#f8cbad" stroke="#823909" stroke-width="2" points="238,-39.5 238,-75.5 292,-75.5 292,-39.5 238,-39.5"/>
<text text-anchor="middle" x="265" y="-53.8" font-family="Fira Sans" font-size="14.00">map</text>
</g>
<!-- get_feature_info -->
<g id="node8" class="node">
<title>get_feature_info</title>
<polygon fill="#c5e0b4" stroke="#385723" stroke-width="2" points="0,-205.5 0,-241.5 128,-241.5 128,-205.5 0,-205.5"/>
<text text-anchor="middle" x="64" y="-219.8" font-family="Fira Sans" font-size="14.00">get_feature_info</text>
</g>
<!-- download_election_data&#45;&gt;get_feature_info -->
<g id="edge3" class="edge">
<title>download_election_data&#45;&gt;get_feature_info</title>
<path fill="none" stroke="#385723" stroke-width="2" d="M93.15,-288.32C88.2,-277.48 81.7,-263.24 76.09,-250.97"/>
<polygon fill="#385723" stroke="#385723" stroke-width="2" points="79.17,-249.29 71.84,-241.65 72.81,-252.2 79.17,-249.29"/>
<text text-anchor="middle" x="94.5" y="-262.8" font-family="Fira Sans" font-size="9.00" fill="#818281">data</text>
</g>
<!-- plot_election -->
<g id="node9" class="node">
<title>plot_election</title>
<polygon fill="#c5e0b4" stroke="#385723" stroke-width="2" points="112,-122.5 112,-158.5 216,-158.5 216,-122.5 112,-122.5"/>
<text text-anchor="middle" x="164" y="-136.8" font-family="Fira Sans" font-size="14.00">plot_election</text>
</g>
<!-- download_election_data&#45;&gt;plot_election -->
<g id="edge4" class="edge">
<title>download_election_data&#45;&gt;plot_election</title>
<path fill="none" stroke="#385723" stroke-width="2" d="M112.33,-288.31C120.13,-275.87 130.27,-258.42 137,-242 146.86,-217.94 154.17,-189.17 158.68,-168.59"/>
<polygon fill="#385723" stroke="#385723" stroke-width="2" points="162.14,-169.15 160.78,-158.64 155.29,-167.71 162.14,-169.15"/>
<text text-anchor="middle" x="159.5" y="-221.3" font-family="Fira Sans" font-size="9.00" fill="#818281">data</text>
</g>
<!-- download_election_data&#45;&gt;plot_map -->
<g id="edge10" class="edge">
<title>download_election_data&#45;&gt;plot_map</title>
<path fill="none" stroke="#385723" stroke-width="2" d="M136.76,-288.3C159.27,-277.55 186.22,-264.86 198,-260 213.79,-253.48 231.27,-246.98 247.09,-241.36"/>
<polygon fill="#385723" stroke="#385723" stroke-width="2" points="248.42,-244.61 256.69,-237.99 246.1,-238 248.42,-244.61"/>
<text text-anchor="middle" x="206" y="-262.8" font-family="Fira Sans" font-size="9.00" fill="#818281">csv</text>
</g>
<!-- get_feature_info&#45;&gt;plot_election -->
<g id="edge5" class="edge">
<title>get_feature_info&#45;&gt;plot_election</title>
<path fill="none" stroke="#385723" stroke-width="2" d="M81.16,-205.46C90.33,-196.64 101.97,-185.89 113,-177 118.31,-172.73 124.1,-168.4 129.81,-164.31"/>
<polygon fill="#385723" stroke="#385723" stroke-width="2" points="131.89,-167.12 138.07,-158.51 127.87,-161.39 131.89,-167.12"/>
<text text-anchor="middle" x="131.5" y="-179.8" font-family="Fira Sans" font-size="9.00" fill="#818281">features</text>
</g>
<!-- plot_election&#45;&gt;bar -->
<g id="edge14" class="edge">
<title>plot_election&#45;&gt;bar</title>
<path fill="none" stroke="#385723" stroke-width="2" d="M170.15,-122.32C173.99,-111.58 179.03,-97.53 183.39,-85.34"/>
<polygon fill="#385723" stroke="#385723" stroke-width="2" points="186.78,-86.25 186.86,-75.65 180.19,-83.89 186.78,-86.25"/>
<text text-anchor="middle" x="188" y="-96.8" font-family="Fira Sans" font-size="9.00" fill="#818281">bar</text>
</g>
<!-- shp2geojson&#45;&gt;plot_map -->
<g id="edge9" class="edge">
<title>shp2geojson&#45;&gt;plot_map</title>
<path fill="none" stroke="#385723" stroke-width="2" d="M324.58,-288.32C319.89,-277.48 313.74,-263.24 308.44,-250.97"/>
<polygon fill="#385723" stroke="#385723" stroke-width="2" points="311.59,-249.44 304.41,-241.65 305.17,-252.22 311.59,-249.44"/>
<text text-anchor="middle" x="333.5" y="-262.8" font-family="Fira Sans" font-size="9.00" fill="#818281">geojson</text>
</g>
<!-- shp2geojson_districts_geojson -->
<g id="node11" class="node">
<title>shp2geojson_districts_geojson</title>
<polygon fill="#cfeae6" stroke="#9fd6ce" stroke-width="2" points="355.5,-380 355.5,-399 452.5,-399 452.5,-380 355.5,-380"/>
<text text-anchor="middle" x="404" y="-387" font-family="Fira Sans" font-size="10.00">districts.geojson</text>
</g>
<!-- shp2geojson_districts_geojson&#45;&gt;shp2geojson -->
<g id="edge7" class="edge">
<title>shp2geojson_districts_geojson&#45;&gt;shp2geojson</title>
<path fill="none" stroke="#385723" stroke-width="2" stroke-dasharray="5,2" d="M401.24,-379.71C397.86,-369.95 391.4,-354.12 382,-343 378.35,-338.68 374.06,-334.63 369.55,-330.91"/>
<polygon fill="#385723" stroke="#385723" stroke-width="2" points="371.37,-327.9 361.3,-324.61 367.13,-333.46 371.37,-327.9"/>
<text text-anchor="middle" x="426" y="-345.8" font-family="Fira Sans" font-size="9.00" fill="#818281">districts_geojson</text>
</g>
<!-- shp2geojson_lco -->
<g id="node12" class="node">
<title>shp2geojson_lco</title>
<polygon fill="#cfeae6" stroke="#9fd6ce" stroke-width="2" points="471,-380 471,-399 557,-399 557,-380 471,-380"/>
<text text-anchor="middle" x="514" y="-387" font-family="Fira Sans" font-size="10.00">RFC7946=YES</text>
</g>
<!-- shp2geojson_lco&#45;&gt;shp2geojson -->
<g id="edge8" class="edge">
<title>shp2geojson_lco&#45;&gt;shp2geojson</title>
<path fill="none" stroke="#385723" stroke-width="2" stroke-dasharray="5,2" d="M507.56,-379.7C499.49,-369.32 484.67,-352.31 468,-343 440.87,-327.85 428.78,-332.59 394.48,-324.91"/>
<polygon fill="#385723" stroke="#385723" stroke-width="2" points="395.27,-321.5 384.73,-322.52 393.61,-328.3 395.27,-321.5"/>
<text text-anchor="middle" x="487.5" y="-345.8" font-family="Fira Sans" font-size="9.00" fill="#818281">lco</text>
</g>
<!-- plot_map&#45;&gt;map -->
<g id="edge15" class="edge">
<title>plot_map&#45;&gt;map</title>
<path fill="none" stroke="#385723" stroke-width="2" d="M293.64,-205.26C288.08,-176.76 276.93,-119.62 270.3,-85.66"/>
<polygon fill="#385723" stroke="#385723" stroke-width="2" points="273.67,-84.65 268.32,-75.51 266.8,-86 273.67,-84.65"/>
<text text-anchor="middle" x="294.5" y="-138.3" font-family="Fira Sans" font-size="9.00" fill="#818281">map</text>
</g>
<!-- plot_map_on -->
<g id="node14" class="node">
<title>plot_map_on</title>
<polygon fill="#cfeae6" stroke="#9fd6ce" stroke-width="2" points="402.5,-297 402.5,-316 509.5,-316 509.5,-297 402.5,-297"/>
<text text-anchor="middle" x="456" y="-304" font-family="Fira Sans" font-size="10.00">gebiet&#45;nr:BEZNUM</text>
</g>
<!-- plot_map_on&#45;&gt;plot_map -->
<g id="edge12" class="edge">
<title>plot_map_on&#45;&gt;plot_map</title>
<path fill="none" stroke="#385723" stroke-width="2" stroke-dasharray="5,2" d="M439.28,-296.98C415.82,-285.03 372.31,-262.87 339.56,-246.18"/>
<polygon fill="#385723" stroke="#385723" stroke-width="2" points="341.13,-243.05 330.63,-241.63 337.95,-249.29 341.13,-243.05"/>
<text text-anchor="middle" x="392" y="-262.8" font-family="Fira Sans" font-size="9.00" fill="#818281">on</text>
</g>
<!-- plot_map_output_name -->
<g id="node15" class="node">
<title>plot_map_output_name</title>
<polygon fill="#cfeae6" stroke="#9fd6ce" stroke-width="2" points="528,-297 528,-316 582,-316 582,-297 528,-297"/>
<text text-anchor="middle" x="555" y="-304" font-family="Fira Sans" font-size="10.00">plot</text>
</g>
<!-- plot_map_output_name&#45;&gt;plot_map -->
<g id="edge13" class="edge">
<title>plot_map_output_name&#45;&gt;plot_map</title>
<path fill="none" stroke="#385723" stroke-width="2" stroke-dasharray="5,2" d="M538.78,-296.87C532.68,-293.83 525.62,-290.53 519,-288 461.4,-265.95 392.84,-247.47 347.31,-236.23"/>
<polygon fill="#385723" stroke="#385723" stroke-width="2" points="347.93,-232.78 337.39,-233.81 346.27,-239.58 347.93,-232.78"/>
<text text-anchor="middle" x="495.5" y="-262.8" font-family="Fira Sans" font-size="9.00" fill="#818281">output_name</text>
</g>
</g>
</svg>
