<?xml version="1.0" encoding="UTF-8" standalone="no"?>
<!DOCTYPE svg PUBLIC "-//W3C//DTD SVG 1.1//EN"
 "http://www.w3.org/Graphics/SVG/1.1/DTD/svg11.dtd">
<!-- Generated by graphviz version 2.43.0 (0)
 -->
<!-- Title: workflow Pages: 1 -->
<svg width="232pt" height="455pt"
 viewBox="0.00 0.00 232.00 455.00" xmlns="http://www.w3.org/2000/svg" xmlns:xlink="http://www.w3.org/1999/xlink">
<g id="graph0" class="graph" transform="scale(1 1) rotate(0) translate(4 451)">
<title>workflow</title>
<g id="clust1" class="cluster">
<title>cluster_inputs</title>
<polygon fill="#eeeeee" stroke="#818281" stroke-width="2" points="56,-363 56,-439 216,-439 216,-363 56,-363"/>
<text text-anchor="middle" x="136" y="-423.8" font-family="Fira Sans" font-size="14.00">Workflow Inputs</text>
</g>
<g id="clust2" class="cluster">
<title>cluster_outputs</title>
<polygon fill="#eeeeee" stroke="#818281" stroke-width="2" points="35,-8 35,-84 176,-84 176,-8 35,-8"/>
<text text-anchor="middle" x="105.5" y="-15.8" font-family="Fira Sans" font-size="14.00">Workflow Outputs</text>
</g>
<!-- ags -->
<g id="node1" class="node">
<title>ags</title>
<polygon fill="#6fc1b5" stroke="#0f9884" stroke-width="2" points="64,-371.5 64,-407.5 118,-407.5 118,-371.5 64,-371.5"/>
<text text-anchor="middle" x="91" y="-385.8" font-family="Fira Sans" font-size="14.00">ags</text>
</g>
<!-- download_election_data -->
<g id="node4" class="node">
<title>download_election_data</title>
<polygon fill="#c5e0b4" stroke="#385723" stroke-width="2" points="35,-288.5 35,-324.5 217,-324.5 217,-288.5 35,-288.5"/>
<text text-anchor="middle" x="126" y="-302.8" font-family="Fira Sans" font-size="14.00">download_election_data</text>
</g>
<!-- ags&#45;&gt;download_election_data -->
<g id="edge1" class="edge">
<title>ags&#45;&gt;download_election_data</title>
<path fill="none" stroke="#385723" stroke-width="2" d="M98.42,-371.32C103.11,-360.48 109.26,-346.24 114.56,-333.97"/>
<polygon fill="#385723" stroke="#385723" stroke-width="2" points="117.83,-335.22 118.59,-324.65 111.41,-332.44 117.83,-335.22"/>
<text text-anchor="middle" x="118" y="-345.8" font-family="Fira Sans" font-size="9.00" fill="#818281">ags</text>
</g>
<!-- election -->
<g id="node2" class="node">
<title>election</title>
<polygon fill="#6fc1b5" stroke="#0f9884" stroke-width="2" points="136.5,-371.5 136.5,-407.5 207.5,-407.5 207.5,-371.5 136.5,-371.5"/>
<text text-anchor="middle" x="172" y="-385.8" font-family="Fira Sans" font-size="14.00">election</text>
</g>
<!-- election&#45;&gt;download_election_data -->
<g id="edge2" class="edge">
<title>election&#45;&gt;download_election_data</title>
<path fill="none" stroke="#385723" stroke-width="2" d="M162.24,-371.32C156.02,-360.37 147.84,-345.96 140.83,-333.61"/>
<polygon fill="#385723" stroke="#385723" stroke-width="2" points="143.72,-331.62 135.74,-324.65 137.64,-335.08 143.72,-331.62"/>
<text text-anchor="middle" x="169" y="-345.8" font-family="Fira Sans" font-size="9.00" fill="#818281">election</text>
</g>
<!-- bar -->
<g id="node3" class="node">
<title>bar</title>
<polygon fill="#f8cbad" stroke="#823909" stroke-width="2" points="78,-39.5 78,-75.5 132,-75.5 132,-39.5 78,-39.5"/>
<text text-anchor="middle" x="105" y="-53.8" font-family="Fira Sans" font-size="14.00">bar</text>
</g>
<!-- get_feature_info -->
<g id="node5" class="node">
<title>get_feature_info</title>
<polygon fill="#c5e0b4" stroke="#385723" stroke-width="2" points="0,-205.5 0,-241.5 128,-241.5 128,-205.5 0,-205.5"/>
<text text-anchor="middle" x="64" y="-219.8" font-family="Fira Sans" font-size="14.00">get_feature_info</text>
</g>
<!-- download_election_data&#45;&gt;get_feature_info -->
<g id="edge3" class="edge">
<title>download_election_data&#45;&gt;get_feature_info</title>
<path fill="none" stroke="#385723" stroke-width="2" d="M112.85,-288.32C104.3,-277.15 93.01,-262.4 83.43,-249.88"/>
<polygon fill="#385723" stroke="#385723" stroke-width="2" points="85.99,-247.47 77.13,-241.65 80.43,-251.72 85.99,-247.47"/>
<text text-anchor="middle" x="108.5" y="-262.8" font-family="Fira Sans" font-size="9.00" fill="#818281">data</text>
</g>
<!-- plot_election -->
<g id="node6" class="node">
<title>plot_election</title>
<polygon fill="#c5e0b4" stroke="#385723" stroke-width="2" points="53,-122.5 53,-158.5 157,-158.5 157,-122.5 53,-122.5"/>
<text text-anchor="middle" x="105" y="-136.8" font-family="Fira Sans" font-size="14.00">plot_election</text>
</g>
<!-- download_election_data&#45;&gt;plot_election -->
<g id="edge4" class="edge">
<title>download_election_data&#45;&gt;plot_election</title>
<path fill="none" stroke="#385723" stroke-width="2" d="M130.62,-288.36C135.4,-268.31 141.57,-234.13 137,-205 134.98,-192.09 133.6,-188.81 128,-177 126.47,-173.78 124.7,-170.51 122.83,-167.32"/>
<polygon fill="#385723" stroke="#385723" stroke-width="2" points="125.69,-165.29 117.42,-158.66 119.75,-169 125.69,-165.29"/>
<text text-anchor="middle" x="148.5" y="-221.3" font-family="Fira Sans" font-size="9.00" fill="#818281">data</text>
</g>
<!-- get_feature_info&#45;&gt;plot_election -->
<g id="edge5" class="edge">
<title>get_feature_info&#45;&gt;plot_election</title>
<path fill="none" stroke="#385723" stroke-width="2" d="M72.7,-205.32C78.24,-194.37 85.53,-179.96 91.78,-167.61"/>
<polygon fill="#385723" stroke="#385723" stroke-width="2" points="94.92,-169.16 96.32,-158.65 88.68,-165.99 94.92,-169.16"/>
<text text-anchor="middle" x="105.5" y="-179.8" font-family="Fira Sans" font-size="9.00" fill="#818281">features</text>
</g>
<!-- plot_election&#45;&gt;bar -->
<g id="edge6" class="edge">
<title>plot_election&#45;&gt;bar</title>
<path fill="none" stroke="#385723" stroke-width="2" d="M105,-122.32C105,-111.69 105,-97.81 105,-85.7"/>
<polygon fill="#385723" stroke="#385723" stroke-width="2" points="108.5,-85.65 105,-75.65 101.5,-85.65 108.5,-85.65"/>
<text text-anchor="middle" x="113" y="-96.8" font-family="Fira Sans" font-size="9.00" fill="#818281">bar</text>
</g>
</g>
</svg>
