<?xml version="1.0" encoding="UTF-8" standalone="no"?>
<!DOCTYPE svg PUBLIC "-//W3C//DTD SVG 1.1//EN"
 "http://www.w3.org/Graphics/SVG/1.1/DTD/svg11.dtd">
<!-- Generated by graphviz version 2.43.0 (0)
 -->
<!-- Title: workflow Pages: 1 -->
<svg width="228pt" height="455pt"
 viewBox="0.00 0.00 228.00 455.00" xmlns="http://www.w3.org/2000/svg" xmlns:xlink="http://www.w3.org/1999/xlink">
<g id="graph0" class="graph" transform="scale(1 1) rotate(0) translate(4 451)">
<title>workflow</title>
<g id="clust1" class="cluster">
<title>cluster_inputs</title>
<polygon fill="#eeeeee" stroke="#818281" stroke-width="2" points="52,-363 52,-439 212,-439 212,-363 52,-363"/>
<text text-anchor="middle" x="132" y="-423.8" font-family="Fira Sans" font-size="14.00">Workflow Inputs</text>
</g>
<g id="clust2" class="cluster">
<title>cluster_outputs</title>
<polygon fill="#eeeeee" stroke="#818281" stroke-width="2" points="32,-8 32,-84 173,-84 173,-8 32,-8"/>
<text text-anchor="middle" x="102.5" y="-15.8" font-family="Fira Sans" font-size="14.00">Workflow Outputs</text>
</g>
<!-- election -->
<g id="node1" class="node">
<title>election</title>
<polygon fill="#6fc1b5" stroke="#0f9884" stroke-width="2" points="60.5,-371.5 60.5,-407.5 131.5,-407.5 131.5,-371.5 60.5,-371.5"/>
<text text-anchor="middle" x="96" y="-385.8" font-family="Fira Sans" font-size="14.00">election</text>
</g>
<!-- download_election_data -->
<g id="node4" class="node">
<title>download_election_data</title>
<polygon fill="#c5e0b4" stroke="#385723" stroke-width="2" points="36,-288.5 36,-324.5 218,-324.5 218,-288.5 36,-288.5"/>
<text text-anchor="middle" x="127" y="-302.8" font-family="Fira Sans" font-size="14.00">download_election_data</text>
</g>
<!-- election&#45;&gt;download_election_data -->
<g id="edge1" class="edge">
<title>election&#45;&gt;download_election_data</title>
<path fill="none" stroke="#385723" stroke-width="2" d="M102.38,-371.19C105.54,-362.68 109.43,-352.29 113,-343 114.1,-340.12 115.27,-337.12 116.44,-334.13"/>
<polygon fill="#385723" stroke="#385723" stroke-width="2" points="119.7,-335.4 120.1,-324.81 113.19,-332.84 119.7,-335.4"/>
<text text-anchor="middle" x="131" y="-345.8" font-family="Fira Sans" font-size="9.00" fill="#818281">election</text>
</g>
<!-- ags -->
<g id="node2" class="node">
<title>ags</title>
<polygon fill="#6fc1b5" stroke="#0f9884" stroke-width="2" points="150,-371.5 150,-407.5 204,-407.5 204,-371.5 150,-371.5"/>
<text text-anchor="middle" x="177" y="-385.8" font-family="Fira Sans" font-size="14.00">ags</text>
</g>
<!-- ags&#45;&gt;download_election_data -->
<g id="edge2" class="edge">
<title>ags&#45;&gt;download_election_data</title>
<path fill="none" stroke="#385723" stroke-width="2" d="M166.38,-371.21C161.15,-362.71 154.75,-352.31 149,-343 147.11,-339.95 145.14,-336.75 143.17,-333.57"/>
<polygon fill="#385723" stroke="#385723" stroke-width="2" points="145.99,-331.49 137.75,-324.83 140.04,-335.17 145.99,-331.49"/>
<text text-anchor="middle" x="163" y="-345.8" font-family="Fira Sans" font-size="9.00" fill="#818281">ags</text>
</g>
<!-- bar -->
<g id="node3" class="node">
<title>bar</title>
<polygon fill="#f8cbad" stroke="#823909" stroke-width="2" points="75,-39.5 75,-75.5 129,-75.5 129,-39.5 75,-39.5"/>
<text text-anchor="middle" x="102" y="-53.8" font-family="Fira Sans" font-size="14.00">bar</text>
</g>
<!-- get_feature_info -->
<g id="node5" class="node">
<title>get_feature_info</title>
<polygon fill="#c5e0b4" stroke="#385723" stroke-width="2" points="0,-205.5 0,-241.5 128,-241.5 128,-205.5 0,-205.5"/>
<text text-anchor="middle" x="64" y="-219.8" font-family="Fira Sans" font-size="14.00">get_feature_info</text>
</g>
<!-- download_election_data&#45;&gt;get_feature_info -->
<g id="edge3" class="edge">
<title>download_election_data&#45;&gt;get_feature_info</title>
<path fill="none" stroke="#385723" stroke-width="2" d="M113.64,-288.32C104.95,-277.15 93.47,-262.4 83.74,-249.88"/>
<polygon fill="#385723" stroke="#385723" stroke-width="2" points="86.24,-247.4 77.34,-241.65 80.72,-251.7 86.24,-247.4"/>
<text text-anchor="middle" x="109.5" y="-262.8" font-family="Fira Sans" font-size="9.00" fill="#818281">data</text>
</g>
<!-- plot_election -->
<g id="node6" class="node">
<title>plot_election</title>
<polygon fill="#c5e0b4" stroke="#385723" stroke-width="2" points="50,-122.5 50,-158.5 154,-158.5 154,-122.5 50,-122.5"/>
<text text-anchor="middle" x="102" y="-136.8" font-family="Fira Sans" font-size="14.00">plot_election</text>
</g>
<!-- download_election_data&#45;&gt;plot_election -->
<g id="edge4" class="edge">
<title>download_election_data&#45;&gt;plot_election</title>
<path fill="none" stroke="#385723" stroke-width="2" d="M131.51,-288.33C136.15,-268.24 142.03,-234.03 137,-205 134.74,-191.98 133.08,-188.73 127,-177 125.27,-173.66 123.26,-170.27 121.15,-166.98"/>
<polygon fill="#385723" stroke="#385723" stroke-width="2" points="123.97,-164.9 115.45,-158.6 118.18,-168.83 123.97,-164.9"/>
<text text-anchor="middle" x="148.5" y="-221.3" font-family="Fira Sans" font-size="9.00" fill="#818281">data</text>
</g>
<!-- get_feature_info&#45;&gt;plot_election -->
<g id="edge5" class="edge">
<title>get_feature_info&#45;&gt;plot_election</title>
<path fill="none" stroke="#385723" stroke-width="2" d="M72.06,-205.32C77.15,-194.48 83.82,-180.24 89.58,-167.97"/>
<polygon fill="#385723" stroke="#385723" stroke-width="2" points="92.87,-169.19 93.95,-158.65 86.54,-166.22 92.87,-169.19"/>
<text text-anchor="middle" x="104.5" y="-179.8" font-family="Fira Sans" font-size="9.00" fill="#818281">features</text>
</g>
<!-- plot_election&#45;&gt;bar -->
<g id="edge6" class="edge">
<title>plot_election&#45;&gt;bar</title>
<path fill="none" stroke="#385723" stroke-width="2" d="M102,-122.32C102,-111.69 102,-97.81 102,-85.7"/>
<polygon fill="#385723" stroke="#385723" stroke-width="2" points="105.5,-85.65 102,-75.65 98.5,-85.65 105.5,-85.65"/>
<text text-anchor="middle" x="110" y="-96.8" font-family="Fira Sans" font-size="9.00" fill="#818281">bar</text>
</g>
</g>
</svg>
