<?xml version="1.0" encoding="UTF-8" standalone="no"?>
<!DOCTYPE svg PUBLIC "-//W3C//DTD SVG 1.1//EN"
 "http://www.w3.org/Graphics/SVG/1.1/DTD/svg11.dtd">
<!-- Generated by graphviz version 2.43.0 (0)
 -->
<!-- Title: G Pages: 1 -->
<svg width="221pt" height="395pt"
 viewBox="0.00 0.00 221.00 395.00" xmlns="http://www.w3.org/2000/svg" xmlns:xlink="http://www.w3.org/1999/xlink">
<g id="graph0" class="graph" transform="scale(1 1) rotate(0) translate(4 391)">
<title>G</title>
<polygon fill="#eeeeee" stroke="transparent" points="-4,4 -4,-391 217,-391 217,4 -4,4"/>
<g id="clust1" class="cluster">
<title>cluster_inputs</title>
<polygon fill="#eeeeee" stroke="black" stroke-dasharray="5,2" points="43,-303 43,-379 205,-379 205,-303 43,-303"/>
<text text-anchor="middle" x="138.5" y="-310.8" font-family="Times,serif" font-size="14.00">Workflow Inputs</text>
</g>
<g id="clust2" class="cluster">
<title>cluster_outputs</title>
<polygon fill="#eeeeee" stroke="black" stroke-dasharray="5,2" points="54,-8 54,-84 199,-84 199,-8 54,-8"/>
<text text-anchor="middle" x="126.5" y="-15.8" font-family="Times,serif" font-size="14.00">Workflow Outputs</text>
</g>
<!-- download_election_data -->
<g id="node1" class="node">
<title>download_election_data</title>
<polygon fill="lightgoldenrodyellow" stroke="black" points="0,-258.5 0,-294.5 186,-294.5 186,-258.5 0,-258.5"/>
<text text-anchor="middle" x="93" y="-272.8" font-family="Times,serif" font-size="14.00">download_election_data</text>
</g>
<!-- get_feature_info -->
<g id="node2" class="node">
<title>get_feature_info</title>
<polygon fill="lightgoldenrodyellow" stroke="black" points="22,-185.5 22,-221.5 154,-221.5 154,-185.5 22,-185.5"/>
<text text-anchor="middle" x="88" y="-199.8" font-family="Times,serif" font-size="14.00">get_feature_info</text>
</g>
<!-- download_election_data&#45;&gt;get_feature_info -->
<g id="edge1" class="edge">
<title>download_election_data&#45;&gt;get_feature_info</title>
<path fill="none" stroke="black" d="M91.79,-258.31C91.22,-250.29 90.54,-240.55 89.91,-231.57"/>
<polygon fill="black" stroke="black" points="93.39,-231.26 89.2,-221.53 86.41,-231.75 93.39,-231.26"/>
</g>
<!-- plot_election -->
<g id="node3" class="node">
<title>plot_election</title>
<polygon fill="lightgoldenrodyellow" stroke="black" points="40.5,-112.5 40.5,-148.5 147.5,-148.5 147.5,-112.5 40.5,-112.5"/>
<text text-anchor="middle" x="94" y="-126.8" font-family="Times,serif" font-size="14.00">plot_election</text>
</g>
<!-- download_election_data&#45;&gt;plot_election -->
<g id="edge3" class="edge">
<title>download_election_data&#45;&gt;plot_election</title>
<path fill="none" stroke="black" d="M127.32,-258.34C141.06,-249.52 155.41,-237.36 163,-222 170.29,-207.26 170.24,-199.77 163,-185 156.99,-172.74 146.68,-162.49 135.82,-154.35"/>
<polygon fill="black" stroke="black" points="137.69,-151.38 127.48,-148.53 133.68,-157.12 137.69,-151.38"/>
</g>
<!-- get_feature_info&#45;&gt;plot_election -->
<g id="edge2" class="edge">
<title>get_feature_info&#45;&gt;plot_election</title>
<path fill="none" stroke="black" d="M89.45,-185.31C90.13,-177.29 90.95,-167.55 91.71,-158.57"/>
<polygon fill="black" stroke="black" points="95.21,-158.79 92.56,-148.53 88.23,-158.2 95.21,-158.79"/>
</g>
<!-- bar -->
<g id="node6" class="node">
<title>bar</title>
<polygon fill="#94ddf4" stroke="black" points="67,-39.5 67,-75.5 121,-75.5 121,-39.5 67,-39.5"/>
<text text-anchor="middle" x="94" y="-53.8" font-family="Times,serif" font-size="14.00">bar</text>
</g>
<!-- plot_election&#45;&gt;bar -->
<g id="edge6" class="edge">
<title>plot_election&#45;&gt;bar</title>
<path fill="none" stroke="black" d="M94,-112.31C94,-104.29 94,-94.55 94,-85.57"/>
<polygon fill="black" stroke="black" points="97.5,-85.53 94,-75.53 90.5,-85.53 97.5,-85.53"/>
</g>
<!-- ags -->
<g id="node4" class="node">
<title>ags</title>
<polygon fill="#94ddf4" stroke="black" points="143,-334.5 143,-370.5 197,-370.5 197,-334.5 143,-334.5"/>
<text text-anchor="middle" x="170" y="-348.8" font-family="Times,serif" font-size="14.00">ags</text>
</g>
<!-- ags&#45;&gt;download_election_data -->
<g id="edge4" class="edge">
<title>ags&#45;&gt;download_election_data</title>
<path fill="none" stroke="black" d="M159.4,-334.07C152.87,-324.22 143.87,-312.09 134,-303 133.2,-302.26 132.37,-301.53 131.53,-300.81"/>
<polygon fill="black" stroke="black" points="133.57,-297.97 123.5,-294.65 129.3,-303.52 133.57,-297.97"/>
</g>
<!-- election -->
<g id="node5" class="node">
<title>election</title>
<polygon fill="#94ddf4" stroke="black" points="51.5,-334.5 51.5,-370.5 124.5,-370.5 124.5,-334.5 51.5,-334.5"/>
<text text-anchor="middle" x="88" y="-348.8" font-family="Times,serif" font-size="14.00">election</text>
</g>
<!-- election&#45;&gt;download_election_data -->
<g id="edge5" class="edge">
<title>election&#45;&gt;download_election_data</title>
<path fill="none" stroke="black" d="M89.16,-334.34C89.75,-325.56 90.49,-314.66 91.16,-304.77"/>
<polygon fill="black" stroke="black" points="94.66,-304.78 91.85,-294.57 87.68,-304.31 94.66,-304.78"/>
</g>
</g>
</svg>
